<svg width="14" height="14" viewBox="0 0 14 14" fill="none" xmlns="http://www.w3.org/2000/svg">
<path d="M6.99998 13.6666C3.31798 13.6666 0.333313 10.6819 0.333313 6.99992C0.333313 3.31792 3.31798 0.333252 6.99998 0.333252C10.682 0.333252 13.6666 3.31792 13.6666 6.99992C13.6666 10.6819 10.682 13.6666 6.99998 13.6666ZM6.99998 12.3333C8.41447 12.3333 9.77102 11.7713 10.7712 10.7712C11.7714 9.77096 12.3333 8.41441 12.3333 6.99992C12.3333 5.58543 11.7714 4.22888 10.7712 3.22868C9.77102 2.22849 8.41447 1.66659 6.99998 1.66659C5.58549 1.66659 4.22894 2.22849 3.22874 3.22868C2.22855 4.22888 1.66665 5.58543 1.66665 6.99992C1.66665 8.41441 2.22855 9.77096 3.22874 10.7712C4.22894 11.7713 5.58549 12.3333 6.99998 12.3333ZM6.33331 8.99992H7.66665V10.3333H6.33331V8.99992ZM6.33331 3.66659H7.66665V7.66659H6.33331V3.66659Z" fill="#667085"/>
</svg>
